<svg width="26" height="24" viewBox="0 0 26 24" fill="none" xmlns="http://www.w3.org/2000/svg">
<path d="M8.19308 5.99979H10.1597C10.5697 5.99979 11.0196 6.33145 11.1605 6.71727L13.1462 12.1571L15.1595 6.70477C15.2987 6.32645 15.5762 6.00063 15.9786 6.00063H17.9577L14.9628 14.0503L17.6369 20.636L22.9717 6.6356C23.1176 6.25395 23.4834 6.00146 23.8925 6.00146H26.3174L18.9744 23.9167H17.1778C16.7836 23.9167 16.4278 23.68 16.2761 23.3167L13.1712 15.8928L10.0422 23.3184C9.88969 23.6808 9.53387 23.9167 9.14055 23.9167H7.31728L3.05176e-05 5.99979H2.40911C2.81243 5.99979 3.17409 6.24812 3.31825 6.62561L8.68056 20.6351L11.3555 14.0495L8.19391 5.99979H8.19308Z" fill="white"/>
</svg>