<svg width="115" height="24" viewBox="0 0 115 24" fill="none" xmlns="http://www.w3.org/2000/svg">
<path d="M53.5247 23.9992C52.3973 23.9992 51.3307 23.7592 50.3249 23.2784C49.3182 22.7984 48.4291 22.1384 47.6549 21.3009C46.8808 20.4626 46.2792 19.4968 45.8475 18.4019C45.4167 17.3077 45.2009 16.1344 45.2009 14.8828C45.2009 13.207 45.5659 11.6988 46.295 10.358C47.025 9.01719 48.0199 7.95639 49.2799 7.17392C50.5398 6.39228 51.944 6.00063 53.4914 6.00063C54.928 6.00063 56.2213 6.34145 57.3713 7.02309C58.5204 7.70473 59.3829 8.6597 59.9579 9.88882L59.2945 10.123C58.7412 9.05052 57.9346 8.20722 56.8738 7.59307C55.8122 6.97892 54.6522 6.67144 53.3914 6.67144C51.9981 6.67144 50.7323 7.03476 49.594 7.76056C48.4558 8.48721 47.5491 9.4705 46.875 10.7105C46.2 11.9504 45.8633 13.342 45.8633 14.8836C45.8633 16.4253 46.2058 17.8052 46.8908 19.0902C47.5758 20.3751 48.4933 21.4034 49.6432 22.1742C50.7923 22.945 52.0523 23.3309 53.4239 23.3309C54.3305 23.3309 55.2147 23.1584 56.0772 22.8109C56.9396 22.4651 57.6854 22.0126 58.3154 21.4534C58.9454 20.8951 59.3487 20.3026 59.5262 19.6768L60.1895 19.8776C59.9462 20.6601 59.482 21.3643 58.7962 21.9892C58.1113 22.615 57.3096 23.1067 56.3921 23.4642C55.4747 23.8217 54.518 24 53.5231 24L53.5247 23.9992Z" fill="#181818"/>
<path d="M69.895 23.9992C68.7534 23.9992 67.6784 23.765 66.6709 23.295C65.6635 22.8259 64.7785 22.1726 64.0177 21.3343C63.2561 20.4968 62.6627 19.536 62.2378 18.4519C61.8119 17.3677 61.6003 16.2228 61.6003 15.0161C61.6003 13.8095 61.8186 12.6312 62.2553 11.5471C62.6919 10.463 63.2911 9.50217 64.0519 8.66469C64.8127 7.82722 65.6976 7.17308 66.7051 6.70393C67.7126 6.23478 68.7759 5.99979 69.8958 5.99979C71.0158 5.99979 72.0783 6.23478 73.0857 6.70393C74.0932 7.17308 74.9773 7.82722 75.739 8.66469C76.4998 9.503 77.0989 10.4638 77.5356 11.5471C77.9722 12.6312 78.1905 13.7878 78.1905 15.0161C78.1905 16.2444 77.9772 17.3686 77.5531 18.4519C77.1272 19.536 76.5289 20.4968 75.7565 21.3343C74.984 22.1726 74.0998 22.8259 73.1032 23.295C72.1066 23.7642 71.0383 23.9992 69.8967 23.9992H69.895ZM62.2719 15.0836C62.2719 16.5811 62.6127 17.9552 63.2961 19.206C63.9785 20.4576 64.8968 21.4576 66.0501 22.2059C67.2034 22.955 68.4734 23.3292 69.8617 23.3292C71.2499 23.3292 72.5257 22.9492 73.6899 22.1892C74.854 21.4301 75.7831 20.4126 76.4773 19.1393C77.1706 17.866 77.5181 16.4803 77.5181 14.9828C77.5181 13.4854 77.1706 12.1062 76.4773 10.8438C75.7831 9.58133 74.8598 8.57053 73.7065 7.81056C72.5532 7.05142 71.2833 6.6706 69.895 6.6706C68.5067 6.6706 67.2643 7.05642 66.1001 7.82722C64.9352 8.59803 64.006 9.62049 63.3127 10.8938C62.6186 12.1671 62.2719 13.5645 62.2719 15.0836Z" fill="#181818"/>
<path d="M79.703 15.0361C79.703 13.4312 80.0572 11.9479 80.7655 10.588C81.4738 9.22801 82.4396 8.12972 83.6645 7.29391C84.8895 6.45811 86.2778 6.03979 87.8277 6.03979C89.3777 6.03979 90.8393 6.46978 92.0759 7.32725C93.3117 8.18638 94.2783 9.19551 94.975 10.3538V0H95.6491V22.66C95.6491 22.8609 95.7 23.0225 95.8008 23.145C95.9016 23.2675 95.9474 23.3292 96.1049 23.3292V23.9983C95.9024 23.9983 95.8391 23.9767 95.75 23.9317C95.5025 23.8208 95.3116 23.6475 95.1766 23.4134C95.0416 23.1792 94.9741 22.9284 94.9741 22.6609V20.0535C94.2325 21.2126 93.2384 22.1609 91.9909 22.8959C90.7435 23.6317 89.4568 23.9992 88.131 23.9992C86.9169 23.9992 85.7928 23.7425 84.7595 23.23C83.7254 22.7175 82.8321 22.0317 82.0796 21.1726C81.3263 20.3151 80.7421 19.356 80.3263 18.2969C79.9105 17.2377 79.703 16.1511 79.703 15.0361ZM94.975 18.0127V11.7588C94.6383 10.8221 94.0867 9.97549 93.3225 9.21718C92.5584 8.45971 91.6876 7.85139 90.7101 7.39391C89.7327 6.93726 88.7719 6.7081 87.8277 6.7081C86.6819 6.7081 85.6536 6.94226 84.7428 7.41058C83.8329 7.87889 83.0512 8.5147 82.3996 9.31718C81.7479 10.1196 81.248 11.0121 80.8996 11.9929C80.5505 12.9745 80.3771 13.9887 80.3771 15.0361C80.3771 16.0836 80.5738 17.1711 80.9671 18.1635C81.3604 19.156 81.9163 20.0418 82.6362 20.8226C83.3554 21.6034 84.1812 22.2167 85.1145 22.6625C86.0469 23.1084 87.0528 23.3317 88.1319 23.3317C88.806 23.3317 89.531 23.1925 90.306 22.9134C91.0818 22.635 91.8176 22.2442 92.5142 21.7426C93.2109 21.2409 93.7833 20.6726 94.2342 20.0368C94.6833 19.401 94.9308 18.7268 94.9758 18.0135L94.975 18.0127Z" fill="#181818"/>
<path d="M105.945 23.9992C104.812 23.9992 103.741 23.7592 102.73 23.2784C101.719 22.7984 100.831 22.1384 100.066 21.3009C99.2998 20.4626 98.6998 19.491 98.2665 18.3844C97.834 17.2786 97.6174 16.1003 97.6174 14.8478C97.6174 13.217 97.984 11.7304 98.7165 10.3896C99.4498 9.04886 100.432 7.98223 101.664 7.18892C102.896 6.39645 104.267 5.99896 105.778 5.99896C107.289 5.99896 108.703 6.40145 109.958 7.20559C111.212 8.00973 112.217 9.08802 112.972 10.4405C113.727 11.7921 114.104 13.3062 114.104 14.982V15.3511H98.2832C98.394 16.8486 98.8048 18.2002 99.5156 19.4068C100.226 20.6135 101.148 21.5693 102.281 22.2726C103.413 22.9767 104.645 23.3284 105.978 23.3284C107.31 23.3284 108.554 22.9875 109.709 22.3059C110.863 21.6251 111.684 20.7476 112.174 19.6743L112.806 19.8418C112.495 20.6243 111.99 21.3334 111.291 21.9701C110.591 22.6067 109.775 23.1042 108.843 23.4617C107.91 23.8192 106.945 23.9975 105.945 23.9975L105.945 23.9992ZM98.284 14.6812H113.406C113.317 13.117 112.929 11.7371 112.24 10.5421C111.552 9.34635 110.653 8.40221 109.543 7.70974C108.432 7.01726 107.189 6.67061 105.812 6.67061C104.435 6.67061 103.225 7.01726 102.115 7.70974C101.004 8.40221 100.111 9.35218 99.4332 10.5588C98.7557 11.7654 98.3732 13.1395 98.284 14.6812Z" fill="#181818"/>
<path d="M9.0888 5.99979H11.0554C11.4654 5.99979 11.9154 6.33144 12.0562 6.71726L14.042 12.1571L16.0552 6.70476C16.1944 6.32644 16.4719 6.00062 16.8744 6.00062H18.8535L15.8586 14.0503L18.5326 20.6359L23.8675 6.6356C24.0133 6.25394 24.3791 6.00145 24.7883 6.00145H27.2132L19.8701 23.9167H18.0735C17.6793 23.9167 17.3235 23.68 17.1719 23.3167L14.067 15.8928L10.9379 23.3183C10.7854 23.6808 10.4296 23.9167 10.0363 23.9167H8.213L0.895752 5.99979H3.30483C3.70815 5.99979 4.06981 6.24811 4.21397 6.6256L9.57628 20.6351L12.2512 14.0495L9.08963 5.99979H9.0888Z" fill="#181818"/>
<path d="M28.6081 5.99979H43.6076V6.09478C43.6076 7.28391 42.6418 8.24971 41.4526 8.24971H30.7639C29.5747 8.24971 28.6089 7.28391 28.6089 6.09478V5.99979H28.6081Z" fill="#181818"/>
<path d="M30.6647 13.8745H43.6076V14.0678C43.6076 15.2028 42.686 16.1244 41.551 16.1244H28.6081V15.9311C28.6081 14.7961 29.5298 13.8745 30.6647 13.8745Z" fill="#181818"/>
<path d="M30.7639 21.7492H41.4527C42.6418 21.7492 43.6076 22.715 43.6076 23.9042V23.9992H28.6081V23.9042C28.6081 22.715 29.5739 21.7492 30.7631 21.7492H30.7639Z" fill="#181818"/>
</svg>
