<svg width="169" height="36" viewBox="0 0 169 36" fill="none" xmlns="http://www.w3.org/2000/svg">
<path d="M78.5657 35.9988C76.8826 35.9988 75.2903 35.6388 73.7888 34.9176C72.2861 34.1976 70.9588 33.2076 69.8032 31.9514C68.6475 30.694 67.7494 29.2453 67.105 27.6028C66.4618 25.9616 66.1396 24.2017 66.1396 22.3243C66.1396 19.8106 66.6845 17.5482 67.773 15.537C68.8627 13.5258 70.348 11.9346 72.2289 10.7609C74.1098 9.58846 76.2059 9.00098 78.5159 9.00098C80.6605 9.00098 82.5912 9.51221 84.3079 10.5347C86.0233 11.5571 87.3108 12.9896 88.1692 14.8333L87.179 15.1845C86.353 13.5758 85.1488 12.3109 83.5652 11.3896C81.9804 10.4684 80.2488 10.0072 78.3667 10.0072C76.2867 10.0072 74.3971 10.5522 72.6979 11.6409C70.9986 12.7308 69.6452 14.2058 68.6388 16.0657C67.6312 17.9257 67.1286 20.0131 67.1286 22.3255C67.1286 24.6379 67.6399 26.7079 68.6624 28.6353C69.685 30.5627 71.0546 32.1052 72.7713 33.2614C74.4867 34.4176 76.3676 34.9963 78.4152 34.9963C79.7686 34.9963 81.0885 34.7376 82.376 34.2163C83.6635 33.6976 84.7769 33.0189 85.7173 32.1802C86.6577 31.3427 87.2598 30.454 87.5248 29.5153L88.515 29.8165C88.1518 30.9902 87.4589 32.0464 86.4351 32.9839C85.4125 33.9226 84.2158 34.6601 82.8462 35.1963C81.4766 35.7325 80.0485 36 78.5632 36L78.5657 35.9988Z" fill="white"/>
<path d="M103.004 35.9988C101.299 35.9988 99.6946 35.6476 98.1907 34.9426C96.6867 34.2389 95.3656 33.2589 94.2299 32.0015C93.0929 30.7452 92.2072 29.304 91.5727 27.6779C90.9371 26.0517 90.6211 24.3342 90.6211 22.5243C90.6211 20.7143 90.947 18.9469 91.5989 17.3207C92.2507 15.6945 93.1451 14.2533 94.2809 12.9971C95.4166 11.7409 96.7377 10.7597 98.2417 10.056C99.7456 9.35224 101.333 8.99976 103.005 8.99976C104.677 8.99976 106.263 9.35224 107.767 10.056C109.271 10.7597 110.591 11.7409 111.728 12.9971C112.863 14.2546 113.758 15.6958 114.41 17.3207C115.061 18.9469 115.387 20.6818 115.387 22.5243C115.387 24.3667 115.069 26.0529 114.436 27.6779C113.8 29.304 112.907 30.7452 111.754 32.0015C110.601 33.2589 109.281 34.2389 107.793 34.9426C106.305 35.6463 104.71 35.9988 103.006 35.9988H103.004ZM91.6237 22.6255C91.6237 24.8717 92.1325 26.9329 93.1526 28.8091C94.1714 30.6865 95.5423 32.1865 97.2639 33.3089C98.9856 34.4326 100.881 34.9939 102.954 34.9939C105.026 34.9939 106.931 34.4239 108.669 33.2839C110.406 32.1452 111.794 30.619 112.83 28.7091C113.865 26.7991 114.383 24.7205 114.383 22.4743C114.383 20.2281 113.865 18.1594 112.83 16.2658C111.794 14.3721 110.415 12.8559 108.694 11.7159C106.972 10.5772 105.076 10.006 103.004 10.006C100.931 10.006 99.0764 10.5847 97.3385 11.7409C95.5995 12.8971 94.2125 14.4308 93.1775 16.3408C92.1412 18.2507 91.6237 20.3469 91.6237 22.6255Z" fill="white"/>
<path d="M117.645 22.5542C117.645 20.1468 118.174 17.9219 119.231 15.8819C120.288 13.842 121.73 12.1946 123.559 10.9409C125.388 9.68716 127.46 9.05969 129.774 9.05969C132.088 9.05969 134.269 9.70466 136.116 10.9909C137.96 12.2796 139.403 13.7933 140.443 15.5307V0H141.45V33.9901C141.45 34.2913 141.526 34.5338 141.676 34.7175C141.827 34.9013 141.895 34.9938 142.13 34.9938V35.9975C141.828 35.9975 141.733 35.965 141.6 35.8975C141.231 35.7313 140.946 35.4713 140.744 35.12C140.543 34.7688 140.442 34.3926 140.442 33.9913V30.0802C139.335 31.8189 137.851 33.2413 135.989 34.3438C134.126 35.4475 132.206 35.9987 130.227 35.9987C128.414 35.9987 126.736 35.6138 125.193 34.845C123.65 34.0763 122.316 33.0476 121.193 31.7589C120.068 30.4727 119.196 29.034 118.576 27.4453C117.955 25.8566 117.645 24.2267 117.645 22.5542ZM140.443 27.0191V17.6381C139.941 16.2332 139.117 14.9632 137.977 13.8258C136.836 12.6896 135.536 11.7771 134.077 11.0909C132.617 10.4059 131.183 10.0622 129.774 10.0622C128.063 10.0622 126.528 10.4134 125.169 11.1159C123.81 11.8183 122.643 12.7721 121.671 13.9758C120.698 15.1795 119.951 16.5182 119.431 17.9894C118.91 19.4618 118.651 20.983 118.651 22.5542C118.651 24.1254 118.945 25.7566 119.532 27.2453C120.119 28.734 120.949 30.0627 122.024 31.2339C123.097 32.4051 124.33 33.3251 125.723 33.9938C127.115 34.6625 128.617 34.9975 130.228 34.9975C131.234 34.9975 132.316 34.7888 133.473 34.3701C134.631 33.9526 135.73 33.3663 136.77 32.6139C137.81 31.8614 138.664 31.0089 139.337 30.0552C140.008 29.1015 140.377 28.0903 140.445 27.0203L140.443 27.0191Z" fill="white"/>
<path d="M156.819 35.9988C155.128 35.9988 153.529 35.6389 152.02 34.9176C150.511 34.1977 149.186 33.2077 148.043 31.9515C146.9 30.694 146.004 29.2366 145.357 27.5766C144.711 25.9179 144.388 24.1505 144.388 22.2718C144.388 19.8257 144.935 17.5957 146.029 15.5846C147.123 13.5734 148.59 11.9734 150.429 10.7835C152.269 9.59476 154.315 8.99854 156.57 8.99854C158.826 8.99854 160.937 9.60226 162.81 10.8085C164.682 12.0147 166.182 13.6321 167.309 15.6608C168.436 17.6882 169 19.9594 169 22.4731V23.0268H145.382C145.547 25.273 146.161 27.3004 147.222 29.1103C148.283 30.9203 149.659 32.354 151.349 33.4089C153.04 34.4652 154.88 34.9926 156.869 34.9926C158.858 34.9926 160.714 34.4814 162.438 33.4589C164.161 32.4377 165.387 31.1215 166.118 29.5116L167.062 29.7628C166.598 30.9365 165.844 32.0002 164.8 32.9552C163.755 33.9102 162.538 34.6564 161.146 35.1926C159.754 35.7289 158.312 35.9964 156.82 35.9964L156.819 35.9988ZM145.383 22.0218H167.958C167.824 19.6757 167.245 17.6057 166.217 15.8133C165.19 14.0196 163.847 12.6034 162.19 11.5647C160.532 10.526 158.676 10.006 156.621 10.006C154.566 10.006 152.759 10.526 151.102 11.5647C149.443 12.6034 148.11 14.0284 147.099 15.8383C146.087 17.6482 145.516 19.7094 145.383 22.0218Z" fill="white"/>
<path d="M12.2307 8.99976H15.1665C15.7786 8.99976 16.4503 9.49724 16.6605 10.076L19.6249 18.2357L22.6304 10.0572C22.8381 9.48974 23.2523 9.00101 23.8532 9.00101H26.8076L22.3368 21.0756L26.3287 30.954L34.2926 9.95347C34.5103 9.38099 35.0564 9.00226 35.6672 9.00226H39.2872L28.3253 35.8751H25.6433C25.0549 35.8751 24.5237 35.5201 24.2973 34.9751L19.6622 23.8392L14.9911 34.9776C14.7635 35.5213 14.2323 35.8751 13.6451 35.8751H10.9233L0 8.99976H3.59633C4.19841 8.99976 4.73829 9.37224 4.9535 9.93847L12.9585 30.9527L16.9516 21.0743L12.232 8.99976H12.2307Z" fill="white"/>
<path d="M41.3696 8.99976H63.7611V9.14225C63.7611 10.9259 62.3194 12.3746 60.5442 12.3746H44.5878C42.8126 12.3746 41.3709 10.9259 41.3709 9.14225V8.99976H41.3696Z" fill="white"/>
<path d="M44.4398 20.8118H63.7611V21.1018C63.7611 22.8042 62.3853 24.1867 60.691 24.1867H41.3696V23.8967C41.3696 22.1942 42.7455 20.8118 44.4398 20.8118Z" fill="white"/>
<path d="M44.5878 32.624H60.5442C62.3194 32.624 63.7611 34.0727 63.7611 35.8564V35.9989H41.3696V35.8564C41.3696 34.0727 42.8114 32.624 44.5865 32.624H44.5878Z" fill="white"/>
</svg>
