<svg width="16" height="16" viewBox="0 0 16 16" fill="none" xmlns="http://www.w3.org/2000/svg">
<g clip-path="url(#clip0_15_394)">
<path d="M15.8047 14.862L11.8253 10.8827C12.9098 9.5564 13.4429 7.86407 13.3146 6.15571C13.1862 4.44736 12.4061 2.85369 11.1357 1.70435C9.86531 0.555014 8.20174 -0.0620646 6.4891 -0.0192434C4.77647 0.0235778 3.14581 0.723023 1.93442 1.93442C0.723023 3.14581 0.0235778 4.77647 -0.0192434 6.4891C-0.0620646 8.20174 0.555014 9.86531 1.70435 11.1357C2.85369 12.4061 4.44736 13.1862 6.15571 13.3146C7.86407 13.4429 9.5564 12.9098 10.8827 11.8253L14.862 15.8047C14.9877 15.9261 15.1561 15.9933 15.3309 15.9918C15.5057 15.9903 15.6729 15.9202 15.7966 15.7966C15.9202 15.6729 15.9903 15.5057 15.9918 15.3309C15.9933 15.1561 15.9261 14.9877 15.8047 14.862ZM6.66667 12C5.61184 12 4.58069 11.6872 3.70363 11.1012C2.82657 10.5151 2.14298 9.68219 1.73932 8.70765C1.33565 7.73311 1.23003 6.66076 1.43582 5.62619C1.64161 4.59163 2.14956 3.64132 2.89544 2.89544C3.64132 2.14956 4.59163 1.64161 5.62619 1.43582C6.66076 1.23003 7.73311 1.33565 8.70765 1.73932C9.68219 2.14298 10.5151 2.82657 11.1012 3.70363C11.6872 4.58069 12 5.61184 12 6.66667C11.9984 8.08067 11.436 9.43631 10.4362 10.4362C9.43631 11.436 8.08067 11.9984 6.66667 12Z" fill="#181818"/>
</g>
<defs>
<clipPath id="clip0_15_394">
<rect width="16" height="16" fill="white"/>
</clipPath>
</defs>
</svg>
